<svg xmlns="http://www.w3.org/2000/svg" xmlns:xlink="http://www.w3.org/1999/xlink" width="350" height="90" viewBox="0 0 350 90">
  <defs>
    <linearGradient id="linear-gradient" x1="0.5" y1="1" x2="0.5" gradientUnits="objectBoundingBox">
      <stop offset="0" stop-color="#f7fcae"/>
      <stop offset="0.31" stop-color="#f7db6a"/>
      <stop offset="0.552" stop-color="#f8c342"/>
      <stop offset="0.783" stop-color="#e1a725"/>
      <stop offset="1" stop-color="#b4700d"/>
    </linearGradient>
    <linearGradient id="linear-gradient-2" y1="0" y2="1" xlink:href="#linear-gradient"/>
    <clipPath id="clip-Botaani-logo-final-V2">
      <rect width="350" height="90"/>
    </clipPath>
  </defs>
  <g id="Botaani-logo-final-V2" clip-path="url(#clip-Botaani-logo-final-V2)">
    <path id="Path_25" data-name="Path 25" d="M337.256.75a7.669,7.669,0,0,0-1.625.162,5.39,5.39,0,0,0-1.306.442,3.713,3.713,0,0,0-.983.674,2.754,2.754,0,0,0-.61.837l-3.7,8.053a1.628,1.628,0,0,0-.171.86,1.125,1.125,0,0,0,.342.674,2.2,2.2,0,0,0,.9.431,5.738,5.738,0,0,0,1.476.162,6.964,6.964,0,0,0,1.61-.174,5.564,5.564,0,0,0,1.347-.487,4.079,4.079,0,0,0,1.015-.744,3.3,3.3,0,0,0,.658-.942L340.786.75Z" transform="translate(3.338 3)" fill="url(#linear-gradient)"/>
    <path id="Path_26" data-name="Path 26" d="M337.255.75h3.531L336.208,10.7a3.323,3.323,0,0,1-.658.942,4.1,4.1,0,0,1-1.015.744,5.564,5.564,0,0,1-1.347.487,6.961,6.961,0,0,1-1.609.174h0a5.738,5.738,0,0,1-1.476-.162,2.2,2.2,0,0,1-.9-.431,1.125,1.125,0,0,1-.342-.674,1.628,1.628,0,0,1,.171-.86l3.7-8.053a2.754,2.754,0,0,1,.61-.837,3.713,3.713,0,0,1,.983-.674,5.39,5.39,0,0,1,1.306-.442A7.66,7.66,0,0,1,337.255.75m0-.75h0a8.39,8.39,0,0,0-1.785.18,6.091,6.091,0,0,0-1.481.5,4.493,4.493,0,0,0-1.171.807,3.489,3.489,0,0,0-.768,1.061L328.345,10.6a2.387,2.387,0,0,0-.235,1.255,1.872,1.872,0,0,0,.561,1.127,2.918,2.918,0,0,0,1.243.623,6.414,6.414,0,0,0,1.664.186,7.754,7.754,0,0,0,1.784-.194,6.3,6.3,0,0,0,1.523-.554,4.859,4.859,0,0,0,1.2-.882,4.1,4.1,0,0,0,.8-1.153l4.577-9.948L341.956,0h-4.7Z" transform="translate(3.338 3)" fill="#b3b3b3"/>
    <path id="Path_27" data-name="Path 27" d="M335.271,68.273a12.469,12.469,0,0,1-4.636-.7,4.2,4.2,0,0,1-2.275-2.709,19.523,19.523,0,0,1-.675-5.88V17.2h7.586V58.988a13.445,13.445,0,0,0,1.011,5.648q1.1,2.089,4.889,2.089h1.686v1.548Z" transform="translate(3.338 3)" fill="url(#linear-gradient-2)"/>
    <path id="Path_28" data-name="Path 28" d="M335.271,17.2V58.988a13.445,13.445,0,0,0,1.011,5.648q1.1,2.089,4.889,2.089h1.686v1.548h-7.586a12.469,12.469,0,0,1-4.636-.7,4.2,4.2,0,0,1-2.275-2.709,19.523,19.523,0,0,1-.675-5.88V17.2Zm.75-.75h-9.086V58.988a20.071,20.071,0,0,0,.713,6.119,4.938,4.938,0,0,0,2.688,3.157,13.03,13.03,0,0,0,4.935.759h8.336V65.975h-2.436c-2.216,0-3.637-.567-4.224-1.687a12.8,12.8,0,0,1-.926-5.3V16.453Z" transform="translate(3.338 3)" fill="#b3b3b3"/>
    <path id="Path_29" data-name="Path 29" d="M310.857,69.047l-36.243-41.4V68.273h-3.371V26.489a8.923,8.923,0,0,0-1.6-5.572q-1.6-2.166-5.984-2.166h-.843V17.2h5.48a15.816,15.816,0,0,1,6.743,1.238,13.972,13.972,0,0,1,4.635,3.405l29.5,33.66V17.2h3.372V69.047Z" transform="translate(3.338 3)" fill="url(#linear-gradient-2)"/>
    <path id="Path_30" data-name="Path 30" d="M268.294,17.2a15.816,15.816,0,0,1,6.743,1.238,13.973,13.973,0,0,1,4.636,3.405l29.5,33.66V17.2h3.371V69.047h-1.687l-36.243-41.4V68.273h-3.371V26.488a8.922,8.922,0,0,0-1.6-5.571q-1.6-2.166-5.983-2.166h-.844V17.2Zm0-.75h-6.229V19.5h1.593c2.658,0,4.468.626,5.381,1.862a8.248,8.248,0,0,1,1.455,5.125V69.023h4.871V29.644l34.929,39.9.224.256h2.777V16.453h-4.871V53.512L280.237,21.351a14.781,14.781,0,0,0-4.887-3.591,16.6,16.6,0,0,0-7.056-1.307" transform="translate(3.338 3)" fill="#b3b3b3"/>
    <path id="Path_31" data-name="Path 31" d="M258.872,64.714a20.99,20.99,0,0,1-3.877-6.113L236.452,17.2h-2.529l-22.9,49.559-.257-.036a8.914,8.914,0,0,1-5.394-2.012,21.047,21.047,0,0,1-3.877-6.113L182.95,17.2h-2.528l-23.6,51.07h3.793l6.744-14.7h23.6l2.107,5.03a16.8,16.8,0,0,0,4.467,6.655,14.262,14.262,0,0,0,5.31,2.785,20.946,20.946,0,0,0,4.552.619h0a9.805,9.805,0,0,0,1.77-.155,11.468,11.468,0,0,0,1.6-.233h3.353l6.743-14.7h23.6l2.108,5.029a16.8,16.8,0,0,0,4.467,6.655,14.248,14.248,0,0,0,5.31,2.785,20.938,20.938,0,0,0,4.551.619h0a9.8,9.8,0,0,0,1.77-.155,11.642,11.642,0,0,0,1.6-.232V66.726a8.908,8.908,0,0,1-5.394-2.012m-90.25-14.238,10.536-22.44,10.114,22.44Zm53.5,0,10.536-22.44,10.114,22.44Z" transform="translate(3.338 3)" fill="url(#linear-gradient-2)"/>
    <path id="Path_32" data-name="Path 32" d="M182.95,17.2l18.543,41.4a21.047,21.047,0,0,0,3.877,6.113,8.92,8.92,0,0,0,5.4,2.012l.256.036,22.9-49.559h2.529l18.543,41.4a21.011,21.011,0,0,0,3.877,6.113,8.908,8.908,0,0,0,5.394,2.012v1.548a11.626,11.626,0,0,1-1.6.232,9.806,9.806,0,0,1-1.77.155h0a20.946,20.946,0,0,1-4.552-.619,14.248,14.248,0,0,1-5.31-2.785,16.8,16.8,0,0,1-4.467-6.655l-2.107-5.029h-23.6l-6.744,14.7h-3.353a11.468,11.468,0,0,1-1.6.233,9.805,9.805,0,0,1-1.77.155h0a20.938,20.938,0,0,1-4.551-.619,14.262,14.262,0,0,1-5.31-2.785,16.818,16.818,0,0,1-4.467-6.655l-2.107-5.03h-23.6l-6.744,14.7h-3.792l23.6-51.07ZM168.623,50.476h20.65l-10.115-22.44-10.535,22.44m53.5,0h20.65L232.66,28.036l-10.536,22.44M183.436,16.453h-3.494l-.2.436-23.6,51.07-.492,1.064H161.1l.2-.437,6.543-14.265h22.62l1.915,4.57a17.588,17.588,0,0,0,4.68,6.942,15.067,15.067,0,0,0,5.6,2.934,21.852,21.852,0,0,0,4.738.643h.013a10.543,10.543,0,0,0,1.856-.16,12.4,12.4,0,0,0,1.584-.227H214.6l.2-.437,6.543-14.264h22.62l1.914,4.569a17.588,17.588,0,0,0,4.68,6.942,15.078,15.078,0,0,0,5.6,2.934,27.578,27.578,0,0,0,2.963.53L259,69.41h1.9a10.571,10.571,0,0,0,1.869-.161,12.109,12.109,0,0,0,1.67-.246l.582-.133V66.039l-.684-.06a8.244,8.244,0,0,1-4.953-1.817,20.488,20.488,0,0,1-3.7-5.878L237.136,16.9l-.2-.443h-3.494l-.2.436L210.569,65.954a8.054,8.054,0,0,1-4.691-1.793,20.457,20.457,0,0,1-3.705-5.877L183.635,16.9ZM169.8,49.726l9.341-19.9,8.968,19.9Zm53.5,0,9.341-19.9,8.968,19.9Z" transform="translate(3.338 3)" fill="#b3b3b3"/>
    <path id="Path_33" data-name="Path 33" d="M133.414,68.273V20.3h-7.586q-5.057,0-7.838,2.167-2.7,2.089-2.7,6.732h-1.686v-5.8a7.467,7.467,0,0,1,.591-2.94,4.586,4.586,0,0,1,2.107-2.321,8.941,8.941,0,0,1,4.467-.929h39.193v3.1H141V68.273Z" transform="translate(3.338 3)" fill="url(#linear-gradient-2)"/>
    <path id="Path_34" data-name="Path 34" d="M159.964,17.2v3.1H141V68.273h-7.586V20.3h-7.585q-5.058,0-7.839,2.167-2.7,2.089-2.7,6.732h-1.685v-5.8a7.469,7.469,0,0,1,.59-2.94,4.59,4.59,0,0,1,2.107-2.321,8.957,8.957,0,0,1,4.467-.929Zm.75-.75H120.771a9.71,9.71,0,0,0-4.843,1.03,5.329,5.329,0,0,0-2.427,2.691,8.212,8.212,0,0,0-.644,3.219v6.554h3.185V29.2c0-2.877.788-4.885,2.407-6.139,1.713-1.334,4.195-2.01,7.38-2.01h6.835V69.023h9.086V21.048h18.964v-4.6Z" transform="translate(3.338 3)" fill="#b3b3b3"/>
    <path id="Path_35" data-name="Path 35" d="M104.683,29.042a24.094,24.094,0,0,0-9.1-9.749,25.532,25.532,0,0,0-13.822-3.637A25.965,25.965,0,0,0,67.85,19.293a24.281,24.281,0,0,0-9.019,9.749,29.064,29.064,0,0,0-3.2,13.7,29.524,29.524,0,0,0,3.2,13.773,24.966,24.966,0,0,0,9.019,9.75,26.4,26.4,0,0,0,13.907,3.559,25.97,25.97,0,0,0,13.822-3.559,24.772,24.772,0,0,0,9.1-9.75,29.537,29.537,0,0,0,3.2-13.774,29.075,29.075,0,0,0-3.2-13.7M97.35,55.506a18.431,18.431,0,0,1-6.069,8.28,15.531,15.531,0,0,1-9.524,2.94,15.767,15.767,0,0,1-9.525-2.94,18.429,18.429,0,0,1-6.069-8.28,35.143,35.143,0,0,1-2.106-12.768,34.521,34.521,0,0,1,2.106-12.69,18.38,18.38,0,0,1,6.069-8.356,15.761,15.761,0,0,1,9.525-2.941,15.531,15.531,0,0,1,9.524,2.94,18.4,18.4,0,0,1,6.069,8.357,34.523,34.523,0,0,1,2.106,12.691A35.141,35.141,0,0,1,97.35,55.506" transform="translate(3.338 3)" fill="url(#linear-gradient-2)"/>
    <path id="Path_36" data-name="Path 36" d="M81.757,15.656A25.533,25.533,0,0,1,95.58,19.293a24.1,24.1,0,0,1,9.1,9.749,29.064,29.064,0,0,1,3.2,13.7,29.526,29.526,0,0,1-3.2,13.774,24.769,24.769,0,0,1-9.1,9.75,25.962,25.962,0,0,1-13.823,3.559A26.4,26.4,0,0,1,67.85,66.262a24.966,24.966,0,0,1-9.019-9.75,29.524,29.524,0,0,1-3.2-13.773,29.065,29.065,0,0,1,3.2-13.7,24.281,24.281,0,0,1,9.019-9.749A25.965,25.965,0,0,1,81.757,15.656Zm0,51.07a15.531,15.531,0,0,0,9.524-2.94,18.423,18.423,0,0,0,6.069-8.28,35.141,35.141,0,0,0,2.107-12.767A34.522,34.522,0,0,0,97.35,30.048a18.38,18.38,0,0,0-6.069-8.356,15.525,15.525,0,0,0-9.524-2.941,15.76,15.76,0,0,0-9.524,2.941,18.38,18.38,0,0,0-6.069,8.356,34.522,34.522,0,0,0-2.107,12.691,35.141,35.141,0,0,0,2.107,12.767,18.429,18.429,0,0,0,6.069,8.28,15.766,15.766,0,0,0,9.524,2.94m0-51.82h0a26.827,26.827,0,0,0-14.3,3.748A25.119,25.119,0,0,0,58.165,28.7a29.931,29.931,0,0,0-3.287,14.041,30.4,30.4,0,0,0,3.287,14.118A25.818,25.818,0,0,0,67.452,66.9a27.275,27.275,0,0,0,14.305,3.673A26.815,26.815,0,0,0,95.971,66.9a25.615,25.615,0,0,0,9.376-10.041,30.4,30.4,0,0,0,3.289-14.122,29.934,29.934,0,0,0-3.289-14.044,24.922,24.922,0,0,0-9.38-10.043,26.373,26.373,0,0,0-14.21-3.745m0,51.07a15.1,15.1,0,0,1-9.083-2.8,17.761,17.761,0,0,1-5.812-7.948,34.57,34.57,0,0,1-2.055-12.492,33.927,33.927,0,0,1,2.055-12.415,17.722,17.722,0,0,1,5.818-8.03A15.091,15.091,0,0,1,81.757,19.5a14.866,14.866,0,0,1,9.077,2.793,17.722,17.722,0,0,1,5.817,8.026,33.95,33.95,0,0,1,2.056,12.419,34.576,34.576,0,0,1-2.056,12.5,17.76,17.76,0,0,1-5.817,7.949,14.866,14.866,0,0,1-9.077,2.793" transform="translate(3.338 3)" fill="#b3b3b3"/>
    <path id="Path_37" data-name="Path 37" d="M47.192,48.7a9.675,9.675,0,0,0-4.214-4.178,23.6,23.6,0,0,0-8.513-2.554q5.731-1.779,8.344-4.72a9.757,9.757,0,0,0,2.613-6.5,10.819,10.819,0,0,0-2.276-7.2,13.641,13.641,0,0,0-5.815-4.024,29.952,29.952,0,0,0-7.5-1.857,60.642,60.642,0,0,0-7.164-.464H.751V18.75H2.436q3.794,0,4.8,2.167a12.036,12.036,0,0,1,1.1,5.571V68.273H25.193a60.317,60.317,0,0,0,8.008-.542,29.7,29.7,0,0,0,7.5-2.089,13.668,13.668,0,0,0,5.563-4.178,11.472,11.472,0,0,0,2.107-7.119,12.974,12.974,0,0,0-1.18-5.649M18.872,20.143a25.92,25.92,0,0,1,3.371-.232,22.744,22.744,0,0,1,6.828,1.083,13.514,13.514,0,0,1,5.9,3.327,7.95,7.95,0,0,1,2.444,6.036,8.513,8.513,0,0,1-2.023,5.8,11.792,11.792,0,0,1-5.057,3.483,17.792,17.792,0,0,1-6.406,1.16H15.922V20.685a29.6,29.6,0,0,1,2.95-.542M35.729,62.779q-4.129,2.786-11.8,2.786a37.181,37.181,0,0,1-4.046-.232,33.737,33.737,0,0,1-3.961-.852V43.9h8.007q7.923,0,11.968,2.785a9.168,9.168,0,0,1,4.046,8.048,9.061,9.061,0,0,1-4.214,8.047" transform="translate(3.338 3)" fill="url(#linear-gradient-2)"/>
    <path id="Path_38" data-name="Path 38" d="M22.664,17.2a60.443,60.443,0,0,1,7.164.465,29.866,29.866,0,0,1,7.5,1.857,13.643,13.643,0,0,1,5.816,4.023,10.822,10.822,0,0,1,2.275,7.2,9.76,9.76,0,0,1-2.612,6.5q-2.613,2.942-8.345,4.72a23.6,23.6,0,0,1,8.513,2.554A9.685,9.685,0,0,1,47.191,48.7a12.974,12.974,0,0,1,1.18,5.649,11.472,11.472,0,0,1-2.107,7.119A13.668,13.668,0,0,1,40.7,65.642a29.732,29.732,0,0,1-7.5,2.09,60.471,60.471,0,0,1-8.007.542H8.335V26.489a12.038,12.038,0,0,0-1.1-5.572q-1.012-2.166-4.8-2.166H.75V17.2ZM15.921,40.8h8.007a17.771,17.771,0,0,0,6.406-1.161,11.8,11.8,0,0,0,5.057-3.482,8.515,8.515,0,0,0,2.023-5.8,7.946,7.946,0,0,0-2.444-6.035A13.488,13.488,0,0,0,29.07,21a22.708,22.708,0,0,0-6.827-1.084,25.931,25.931,0,0,0-3.372.233,29.618,29.618,0,0,0-2.95.541V40.8m8.007,24.761h0q7.671,0,11.8-2.786a9.056,9.056,0,0,0,4.214-8.047A9.168,9.168,0,0,0,35.9,46.685Q31.852,43.9,23.928,43.9H15.921V64.482a33.735,33.735,0,0,0,3.961.851,36.931,36.931,0,0,0,4.046.232M22.664,16.453H0V19.5H2.435c2.231,0,3.581.567,4.125,1.733a11.38,11.38,0,0,1,1.025,5.255V69.023H25.193a61.447,61.447,0,0,0,8.106-.549A30.614,30.614,0,0,0,41,66.33a14.459,14.459,0,0,0,5.855-4.406,12.256,12.256,0,0,0,2.265-7.579,13.764,13.764,0,0,0-1.253-5.971,10.457,10.457,0,0,0-4.524-4.51,20.478,20.478,0,0,0-5.977-2.148,16.263,16.263,0,0,0,6-3.974,10.53,10.53,0,0,0,2.8-7,11.592,11.592,0,0,0-2.451-7.679,14.437,14.437,0,0,0-6.129-4.244,30.723,30.723,0,0,0-7.675-1.9,61.47,61.47,0,0,0-7.252-.47m-5.993,4.83c.683-.147,1.455-.28,2.3-.4a25.167,25.167,0,0,1,3.269-.226,22.1,22.1,0,0,1,6.6,1.049,12.864,12.864,0,0,1,5.6,3.146,7.174,7.174,0,0,1,2.22,5.5,7.726,7.726,0,0,1-1.838,5.311,11.122,11.122,0,0,1-4.754,3.272,17.106,17.106,0,0,1-6.144,1.114H16.671Zm0,23.366h7.257c5.1,0,8.986.893,11.543,2.653a8.391,8.391,0,0,1,3.721,7.43,8.285,8.285,0,0,1-3.877,7.422c-2.62,1.767-6.449,2.661-11.387,2.661v0a36.389,36.389,0,0,1-3.963-.228,32.913,32.913,0,0,1-3.294-.68Z" transform="translate(3.338 3)" fill="#b3b3b3"/>
    <path id="Path_49" data-name="Path 49" d="M181.878,73.035a6.091,6.091,0,0,1,6.382-6.16,5.948,5.948,0,0,1,4.577,1.876l-1.116,1.084a4.467,4.467,0,0,0-3.392-1.428,4.63,4.63,0,1,0,0,9.257,4.486,4.486,0,0,0,3.392-1.444l1.116,1.084a5.972,5.972,0,0,1-4.594,1.893,6.087,6.087,0,0,1-6.365-6.16" transform="translate(31.415 9.095)" fill="#fff"/>
    <path id="Path_50" data-name="Path 50" d="M202.1,76.03h-6.4l-1.325,3.011H192.6L198.057,67h1.7l5.472,12.045h-1.806Zm-.6-1.377-2.6-5.9-2.6,5.9Z" transform="translate(32.773 9.11)" fill="#fff"/>
    <path id="Path_51" data-name="Path 51" d="M215.969,67V79.042h-1.412l-7.226-8.982v8.982H205.61V67h1.41l7.227,8.982V67Z" transform="translate(34.419 9.11)" fill="#fff"/>
    <path id="Path_52" data-name="Path 52" d="M228.451,67V79.042h-1.411l-7.227-8.982v8.982h-1.721V67H219.5l7.227,8.982V67Z" transform="translate(35.999 9.11)" fill="#fff"/>
    <path id="Path_53" data-name="Path 53" d="M238.59,76.03h-6.4l-1.326,3.011h-1.772L234.547,67h1.7l5.472,12.045h-1.8Zm-.6-1.377-2.6-5.9-2.6,5.9Z" transform="translate(37.392 9.11)" fill="#fff"/>
    <path id="Path_54" data-name="Path 54" d="M243.821,68.494v4.2h6.04v1.479h-6.04v4.87H242.1V67h8.5v1.5Z" transform="translate(39.038 9.11)" fill="#fff"/>
    <path id="Path_55" data-name="Path 55" d="M251.663,73.845V67h1.72v6.78c0,2.667,1.222,3.871,3.39,3.871s3.407-1.2,3.407-3.871V67h1.67v6.848c0,3.494-1.91,5.334-5.093,5.334-3.166,0-5.093-1.841-5.093-5.334" transform="translate(40.249 9.11)" fill="#fff"/>
    <path id="Path_56" data-name="Path 56" d="M262.944,77.68l.637-1.342a6.2,6.2,0,0,0,3.975,1.394c2.082,0,2.978-.809,2.978-1.859,0-2.941-7.3-1.084-7.3-5.557,0-1.859,1.445-3.442,4.611-3.442a7.082,7.082,0,0,1,3.871,1.067l-.567,1.377a6.22,6.22,0,0,0-3.3-.981c-2.048,0-2.925.861-2.925,1.911,0,2.943,7.3,1.1,7.3,5.524,0,1.841-1.48,3.424-4.664,3.424a7.152,7.152,0,0,1-4.611-1.514" transform="translate(41.677 9.094)" fill="#fff"/>
    <rect id="Rectangle_19" data-name="Rectangle 19" width="1.72" height="12.045" transform="translate(316.659 76.106)" fill="#fff"/>
    <path id="Path_57" data-name="Path 57" d="M277.671,73.035a6.405,6.405,0,1,1,6.418,6.16,6.122,6.122,0,0,1-6.418-6.16m11.081,0a4.681,4.681,0,1,0-4.663,4.628,4.523,4.523,0,0,0,4.663-4.628" transform="translate(43.541 9.095)" fill="#fff"/>
    <path id="Path_58" data-name="Path 58" d="M301.914,67V79.042H300.5l-7.227-8.982v8.982h-1.721V67h1.412l7.227,8.982V67Z" transform="translate(45.298 9.11)" fill="#fff"/>
  </g>
</svg>
